<svg width="273" height="74" viewBox="0 0 273 74" fill="none" xmlns="http://www.w3.org/2000/svg"><g filter="url(#a)"><path d="M67.03 48.6c-2.16 0-4.06-.38-5.7-1.13a8.88 8.88 0 0 1-3.8-3.14 8.48 8.48 0 0 1-1.34-4.72c0-1.51.3-2.88.92-4.12a7.93 7.93 0 0 1 2.57-2.93 6.43 6.43 0 0 1 3.6-1.07c1.2 0 2.2.3 3.03.92.82.58 1.34 1.4 1.54 2.47a6.1 6.1 0 0 0-4.26 1.44 4.78 4.78 0 0 0-1.6 3.8 4.8 4.8 0 0 0 1.34 3.55 4.8 4.8 0 0 0 3.55 1.33c1.81 0 3.3-.6 4.47-1.8a6.37 6.37 0 0 0 1.8-4.62c0-1.61-.45-3.14-1.34-4.58a43.06 43.06 0 0 0-4-5.24 47.78 47.78 0 0 1-4.22-5.45 9.61 9.61 0 0 1-1.4-5.03c0-1.78.5-3.38 1.5-4.78 1-1.44 2.36-2.57 4.11-3.4a13.71 13.71 0 0 1 5.91-1.23c2.78 0 4.99.65 6.63 1.95a6.3 6.3 0 0 1 2.52 5.25c0 1.44-.36 2.6-1.08 3.5a3.46 3.46 0 0 1-2.83 1.33 3.7 3.7 0 0 1-3.13-1.6 4.98 4.98 0 0 0 1.54-1.9c.38-.78.57-1.6.57-2.46 0-1.1-.33-1.97-.98-2.62a3.61 3.61 0 0 0-2.67-.98c-1.37 0-2.5.5-3.4 1.49a5.35 5.35 0 0 0-1.28 3.7c0 1.37.4 2.65 1.18 3.85a43.7 43.7 0 0 0 3.7 4.53 57.3 57.3 0 0 1 3.3 3.8 15 15 0 0 1 2.15 3.7c.62 1.37.93 2.86.93 4.47 0 2.2-.62 4.18-1.85 5.96a12.32 12.32 0 0 1-4.99 4.22 15.62 15.62 0 0 1-6.99 1.54Zm21.8-.62a5.42 5.42 0 0 1-4-1.54c-1-1.03-1.5-2.57-1.5-4.62 0-.86.15-1.97.42-3.34l3.08-14.45h-1.7l.42-2.05h1.7l1.54-7.1 7.6-1.02-1.74 8.12h3.08l-.41 2.05h-3.09l-3.29 15.42c-.13.52-.2 1.06-.2 1.65 0 .68.15 1.18.46 1.49.34.27.9.4 1.65.4.99 0 1.92-.4 2.77-1.23a7.38 7.38 0 0 0 1.85-3.28h2.16c-1.27 3.7-2.9 6.21-4.88 7.55a10.74 10.74 0 0 1-5.91 1.95Zm16.13-.1c-2.54 0-4.54-.65-6.02-1.95-1.47-1.3-2.2-3.36-2.2-6.17 0-2.33.47-4.92 1.43-7.76s2.5-5.3 4.63-7.35a10.96 10.96 0 0 1 8.01-3.14c4.39 0 6.58 2.75 6.58 8.23v.05c.1.03.3.05.57.05 1.13 0 2.43-.29 3.9-.87a20.46 20.46 0 0 0 4.01-2.21l.46 1.38a12.48 12.48 0 0 1-3.9 2.73c-1.58.72-3.3 1.23-5.2 1.54a23.28 23.28 0 0 1-2.1 8.17 13.88 13.88 0 0 1-4.37 5.4 9.81 9.81 0 0 1-5.8 1.9Zm2.05-4.63c.82 0 1.65-.46 2.47-1.38.82-.96 1.54-2.25 2.16-3.86a25.34 25.34 0 0 0 1.33-5.45c-.92-.2-1.39-.92-1.39-2.15 0-1.4.54-2.33 1.6-2.78a5.08 5.08 0 0 0-.52-2.31c-.27-.45-.75-.67-1.44-.67-1.13 0-2.22.82-3.28 2.47a21.82 21.82 0 0 0-2.57 5.9 22.6 22.6 0 0 0-.98 6.07c0 1.65.19 2.76.56 3.34.38.55 1.07.82 2.06.82Zm16.52-21.27h7.4l-.67 3.18a21.41 21.41 0 0 1 3.14-2.36 6.11 6.11 0 0 1 3.08-.82c1.1 0 1.96.37 2.57 1.13.65.75.98 1.66.98 2.72 0 1-.33 1.87-.98 2.62a3.4 3.4 0 0 1-2.72 1.13c-.75 0-1.27-.17-1.54-.51-.24-.38-.43-.9-.57-1.6-.1-.44-.2-.76-.3-.97-.1-.2-.3-.3-.57-.3a3.6 3.6 0 0 0-1.85.45c-.48.28-1.12.78-1.9 1.5l-4.11 19.52h-7.4l5.44-25.7Zm23.85 38.54a6.35 6.35 0 0 1-4.27-1.59 4.98 4.98 0 0 1-1.8-3.96c0-1.5.38-2.74 1.13-3.7a7.75 7.75 0 0 1 2.93-2.26c1.2-.55 2.81-1.13 4.84-1.75l.5-2.26a8.08 8.08 0 0 1-6.26 2.98 5.42 5.42 0 0 1-4.01-1.54c-1-1.03-1.5-2.57-1.5-4.62 0-.86.15-1.97.42-3.34l3.5-16.5h7.4l-3.7 17.47c-.1.41-.16.84-.16 1.29 0 1.5.51 2.26 1.54 2.26.96 0 1.78-.4 2.47-1.18a9.2 9.2 0 0 0 1.65-3.34l3.49-16.5h7.45l-6.27 29.8c-.68 3.3-1.9 5.57-3.65 6.84a9.37 9.37 0 0 1-5.7 1.9Zm-1.18-4.57c.61 0 1.2-.33 1.74-.98a6.8 6.8 0 0 0 1.29-3.03l.62-3.03a13.35 13.35 0 0 0-4.22 2.16 3.91 3.91 0 0 0-1.49 3.18c0 .41.2.8.62 1.13.4.38.89.57 1.44.57Zm45.53 4.57a8.9 8.9 0 0 1-4.57-1.33 51.28 51.28 0 0 1-5.66-4.01 83.68 83.68 0 0 0-4.42-3.34 20.7 20.7 0 0 0-3.96-2.1 11.17 11.17 0 0 0-5.5-.83l7.66-35.62c-2.3.93-4.07 2.35-5.34 4.27a12.4 12.4 0 0 0-1.85 6.94c0 1.26.12 2.15.36 2.67.24.48.36.75.36.82-1.85 0-3.24-.38-4.16-1.13-.9-.79-1.34-2.07-1.34-3.85 0-2.2.89-4.32 2.67-6.38a19.84 19.84 0 0 1 6.94-5.03 19.9 19.9 0 0 1 10.48-1.85l-7.91 36.9c.96.24 1.94.58 2.93 1.02 1.03.48 2.26 1.12 3.7 1.9a55.42 55.42 0 0 0 5.7 2.73c1.58.65 3.22.98 4.94.98 1.54 0 2.98-.28 4.31-.83-.27 2.5-.89 4.48-1.84 5.91-.93 1.44-2.1 2.16-3.5 2.16Zm-1.75-12.64c-2.54 0-4.54-.65-6.02-1.95-1.47-1.3-2.2-3.36-2.2-6.17 0-2.33.47-4.92 1.43-7.76s2.5-5.3 4.63-7.35a10.97 10.97 0 0 1 8.02-3.14c4.38 0 6.57 2.75 6.57 8.23v.05c.1.03.3.05.57.05 1.13 0 2.43-.29 3.9-.87a20.44 20.44 0 0 0 4.02-2.21l.46 1.38c-1 1.07-2.3 1.97-3.9 2.73a20.45 20.45 0 0 1-5.2 1.54 23.28 23.28 0 0 1-2.1 8.17 13.88 13.88 0 0 1-4.38 5.4 9.81 9.81 0 0 1-5.8 1.9Zm2.05-4.63c.83 0 1.65-.46 2.47-1.38.82-.96 1.54-2.25 2.16-3.86a25.34 25.34 0 0 0 1.34-5.45c-.93-.2-1.4-.92-1.4-2.15 0-1.4.54-2.33 1.6-2.78a5.1 5.1 0 0 0-.51-2.31c-.28-.45-.76-.67-1.44-.67-1.13 0-2.23.82-3.3 2.47a21.82 21.82 0 0 0-2.56 5.9 22.6 22.6 0 0 0-.98 6.07c0 1.65.2 2.76.57 3.34.37.55 1.06.82 2.05.82Zm18.89 4.73c-1.99 0-3.55-.5-4.68-1.49-1.1-1.03-1.64-2.55-1.64-4.57 0-.82.08-1.65.25-2.47l3.7-17.47h7.4l-3.7 17.47c-.17.86-.25 1.47-.25 1.85 0 1.13.58 1.7 1.75 1.7 1.57 0 3.03-1 4.36-2.98a25.13 25.13 0 0 0 3.3-7.1 25.3 25.3 0 0 0 1.23-7.09c-.07.17-.3.31-.67.41-.38.07-.7.1-.98.1-.58 0-1.04-.27-1.39-.82a3.61 3.61 0 0 1-.46-1.8c0-.82.26-1.49.77-2 .55-.51 1.36-.77 2.42-.77 1.13 0 1.95.43 2.46 1.28.52.83.78 1.89.78 3.2 0 3.07-.53 6.38-1.6 9.91a23.56 23.56 0 0 1-4.88 8.94 10.5 10.5 0 0 1-8.17 3.7Zm22.77 0c-2.54 0-4.5-.65-5.91-1.95-1.4-1.34-2.1-3.4-2.1-6.22 0-2.36.45-4.97 1.38-7.81.93-2.84 2.43-5.3 4.52-7.35a10.8 10.8 0 0 1 7.97-3.14c3.77 0 5.65 1.65 5.65 4.94a9.2 9.2 0 0 1-1.64 5.3 12.35 12.35 0 0 1-4.37 3.9c-1.82.96-3.75 1.5-5.8 1.64a30.84 30.84 0 0 0-.11 2.06c0 1.68.29 2.83.87 3.44.59.58 1.53.88 2.83.88 1.85 0 3.43-.43 4.73-1.29a23.2 23.2 0 0 0 4.37-3.9h1.74c-3.8 6.33-8.51 9.5-14.13 9.5Zm.1-13.15a6.65 6.65 0 0 0 3.6-1.34 9.05 9.05 0 0 0 2.78-3.14 8 8 0 0 0 1.08-4c0-1.4-.43-2.11-1.29-2.11-1.23 0-2.45 1.08-3.65 3.24-1.16 2.16-2 4.6-2.52 7.35Zm18.13 13.15a8.6 8.6 0 0 1-4.16-.92 6.46 6.46 0 0 1-2.52-2.47 6.68 6.68 0 0 1-.82-3.19c0-1.13.27-2.1.82-2.92a4.68 4.68 0 0 1 1.9-1.86c1.34-2.4 2.5-4.8 3.5-7.24 1-2.47 1.94-5.12 2.83-7.97l7.6-1.03c.17 4.39.47 9.14.88 14.24.17 2.06.25 3.55.25 4.47a8 8 0 0 1-1.59 5.14 8.92 8.92 0 0 1-3.96 2.88c-1.54.58-3.12.87-4.73.87Zm-1.64-4.06c1.27 0 2.33-.37 3.19-1.13.85-.75 1.28-1.97 1.28-3.65 0-1.02-.1-2.46-.3-4.31-.35-3.91-.57-6.53-.68-7.87a59.44 59.44 0 0 1-4.16 9.72c.79.4 1.18 1 1.18 1.8a2.6 2.6 0 0 1-.66 1.74c-.42.52-.95.77-1.6.77-.72 0-1.18-.22-1.39-.66 0 1.23.24 2.14.72 2.72.52.58 1.32.87 2.42.87Z" fill="url(#b)"/></g><g filter="url(#c)"><path fill-rule="evenodd" clip-rule="evenodd" d="M33.44 8.45c-1.95.58-4.3 2.06-6.75 4.28-1.3 1.17-1.53 1.22-1.84.42-.19-.5-.61-.91-.93-.91-.33 0-1.12-.5-1.77-1.12-2.46-2.32-5.54-1.6-8.2 1.91-2.33 3.08-3.8 10.27-2.4 11.7.36.36.4.72.08.91-.63.4 1.17 6.02 2.02 6.3.32.11.59.78.59 1.47 0 .7.8 2.4 1.77 3.76l3.97 5.54c4.48 6.28 3.77 2.61-1.45-7.53-2.58-5-3.37-11.62-1.88-15.79.83-2.33 2.44-2.7 6.2-1.41 3.55 1.22 4.74 1.1 5.62-.56a5.46 5.46 0 0 1 1.73-1.94c.54-.3.98-.9.98-1.34 0-.44.23-.8.51-.8s1.73-.77 3.23-1.7c2.31-1.45 2.89-1.6 3.9-1.06.95.51 1.13.95.84 2.12-.47 1.88-3.11 6.54-4.9 8.64-.77.9-1.4 2.05-1.4 2.56 0 .51-.24 1.08-.54 1.27-.3.19-.82 1.44-1.15 2.77a9.5 9.5 0 0 1-1.88 3.7 7.2 7.2 0 0 0-1.64 2.77c-.2.82-.61 1.5-.91 1.5-.3 0-.41.35-.24.8.18.47-.12.92-.77 1.13-.58.19-1.06.69-1.06 1.1 0 .43-.34 1.84-.76 3.14a58.3 58.3 0 0 0-1.12 3.92c-.5 2.17.63 1.35 1.24-.9.27-.98.8-1.7 1.17-1.6.43.1.57-.17.37-.71-.2-.5 0-1 .46-1.18.44-.17 1.32-1.15 1.94-2.17.63-1.02 1.44-1.8 1.8-1.73.4.07.6-.56.55-1.7-.06-1.46.1-1.77.78-1.5.84.32 1.75-.53 1.75-1.63 0-.3-.23-.18-.52.27-.38.62-.66.66-1.14.18-.89-.89-.08-1.94 1.18-1.54.8.26 1.04.07 1.04-.83 0-.74.24-1.03.62-.79.43.27.55-.14.37-1.34-.2-1.42-.06-1.73.78-1.73.57 0 .88-.25.7-.56-.2-.3.04-.7.5-.88 1.33-.51 1.01-1.43-.37-1.08-.68.17-.44-.06.52-.5a6.16 6.16 0 0 0 2.66-2.76 8.14 8.14 0 0 1 1.37-2.23c.25-.16.32-.64.15-1.09-.17-.45.08-.95.57-1.14 1.37-.53 1.15-4.6-.37-6.88-1.08-1.62-1.57-1.88-3.69-1.97-1.34-.06-3.27.14-4.28.44Zm3.75 12.04c-.7.46-.68.54.14.55.53 0 .96-.24.96-.55 0-.67-.07-.67-1.1 0Zm-5.46 9.3c0 .27.4.65.9.84.74.29.78.2.2-.5-.79-.95-1.1-1.05-1.1-.34Z" fill="url(#d)"/></g><defs><linearGradient id="b" x1="158.38" y1="10.84" x2="158.38" y2="47.67" gradientUnits="userSpaceOnUse"><stop stop-color="#FFFFFD"/><stop offset="1" stop-color="#DFD0EC"/></linearGradient><linearGradient id="d" x1="26.85" y1="3.18" x2="26.85" y2="47.27" gradientUnits="userSpaceOnUse"><stop stop-color="#FFFFFD"/><stop offset="1" stop-color="#DFD0EC"/></linearGradient><filter id="a" x="45.85" y="1.29" width="226.69" height="72.32" filterUnits="userSpaceOnUse" color-interpolation-filters="sRGB"><feFlood flood-opacity="0" result="BackgroundImageFix"/><feColorMatrix in="SourceAlpha" values="0 0 0 0 0 0 0 0 0 0 0 0 0 0 0 0 0 0 127 0" result="hardAlpha"/><feOffset dy="2.76"/><feGaussianBlur stdDeviation="5.17"/><feComposite in2="hardAlpha" operator="out"/><feColorMatrix values="0 0 0 0 0.505882 0 0 0 0 0.129412 0 0 0 0 0.666667 0 0 0 0.2 0"/><feBlend in2="BackgroundImageFix" result="effect1_dropShadow_36_2222"/><feBlend in="SourceGraphic" in2="effect1_dropShadow_36_2222" result="shape"/></filter><filter id="c" x=".67" y=".42" width="52.36" height="59.94" filterUnits="userSpaceOnUse" color-interpolation-filters="sRGB"><feFlood flood-opacity="0" result="BackgroundImageFix"/><feColorMatrix in="SourceAlpha" values="0 0 0 0 0 0 0 0 0 0 0 0 0 0 0 0 0 0 127 0" result="hardAlpha"/><feOffset dy="2.76"/><feGaussianBlur stdDeviation="5.17"/><feComposite in2="hardAlpha" operator="out"/><feColorMatrix values="0 0 0 0 0.505882 0 0 0 0 0.129412 0 0 0 0 0.666667 0 0 0 0.3 0"/><feBlend in2="BackgroundImageFix" result="effect1_dropShadow_36_2222"/><feBlend in="SourceGraphic" in2="effect1_dropShadow_36_2222" result="shape"/></filter></defs></svg>