<svg width="24" height="14" viewBox="0 0 24 14" fill="none" xmlns="http://www.w3.org/2000/svg"><g clip-path="url(#a)" stroke="#A4A4A4" stroke-width="2" stroke-linecap="round" stroke-linejoin="round"><path d="M9.88 5.66c-.3.15-.53.33-.7.53-.16.2-.25.41-.25.63a1 1 0 0 0 .21.63A2 2 0 0 0 9.8 8c.29.16.63.28 1 .36a5.32 5.32 0 0 0 2.35-.02c.36-.1.7-.22.97-.38M10.73 3.07c.42-.03.85-.04 1.27-.04 7 0 10 3.78 10 3.78-.45.51-1 1-1.67 1.44"/><path d="M6.61 3.9A11.28 11.28 0 0 0 2 6.8s3 3.79 10 3.79c1.92 0 3.8-.3 5.39-.87M2 1.4l20 10.8"/></g><defs><clipPath id="a"><path fill="#fff" d="M0 .33h24v12.95H0z"/></clipPath></defs></svg>